<svg xmlns="http://www.w3.org/2000/svg" viewBox="0 0 63.63 42.38"><defs><style>.cls-1{fill:#88bede;}.cls-2,.cls-4,.cls-5{fill:none;stroke-linecap:round;stroke-width:2px;}.cls-2{stroke:#fff;}.cls-3{fill:#d4145a;}.cls-4,.cls-5{stroke:#88bede;}.cls-5{stroke-linejoin:round;}</style></defs><title>logo</title><g id="レイヤー_2" data-name="レイヤー 2"><g id="レイヤー_1-2" data-name="レイヤー 1"><path class="cls-1" d="M49.06,23.67C48.46,21,45,6.12,43.63,6.12c-1.59,0-7.3,7.12-8.13,8.17A25,25,0,0,0,31,13.88a25.36,25.36,0,0,0-4.5.41c-.82-1-6.54-8.17-8.13-8.17-1.42,0-4.89,15.16-5.45,17.63A11.09,11.09,0,0,0,12,28.13C12,36,20.53,42.38,31,42.38S50,36,50,28.13A11,11,0,0,0,49.06,23.67Z"/><path class="cls-2" d="M24.61,33.38s1.27,2.06,3.07,2.21a3,3,0,0,0,3.08-2.85"/><path class="cls-2" d="M37,33.38s-1.27,2.06-3.08,2.21a3,3,0,0,1-3.07-2.85"/><path class="cls-3" d="M30.76,32.58c-1.14-.69-4.94-3.21-3.86-5.58s3.86,0,3.86,0,2.77-2.37,3.85,0S31.89,31.89,30.76,32.58Z"/><path class="cls-4" d="M23.71,29.07S11.37,27.16,8,29.8"/><path class="cls-4" d="M23.71,31.34s-12.48.32-15.3,3.51"/><path class="cls-5" d="M37.09,28.83s12.24-1.89,15.56.72"/><path class="cls-5" d="M37.09,31.08s12.38.32,15.18,3.48"/><path class="cls-1" d="M3.25,26.05c-.35,0-3.34-13-3.25-13.24A6,6,0,0,1,2.59,12c.31.12,1.59,7.25,1.88,7.34s1.83-3.72,2.18-3.69,1.89,3.57,2.18,3.69S10.37,12.14,10.7,12a5.41,5.41,0,0,1,2.59.8c.12.29-2.92,13.17-3.24,13.24s-3-4.71-3.41-4.73S3.6,26,3.25,26.05Z"/><path class="cls-1" d="M36.33,3.25c-.3.21-4.93-.18-5.3,0s-.38.09-.12.31,5.3,4.23,5.49,4.65-1,4.57-1.5,4.49a18.59,18.59,0,0,0-7.13,0c-.36.07-.29-3,0-3,.58-.19,5.2.34,5.34,0,0,0,.12,0,.13-.33s-5.58-4.47-5.5-4.71S28.54.49,29.2.23s6.73-.35,7.13,0A4.53,4.53,0,0,1,36.33,3.25Z"/><path class="cls-1" d="M53.89,15.28c.34-.19.6-5.66.92-5.75s8.8,10.07,8.82,10.39a5.4,5.4,0,0,1-2,1.87c-.35,0-4.76-6-5-5.72s0,4.08-.29,4.27S53,17.81,52.82,18s1.83,7.16,1.61,7.4a5.91,5.91,0,0,1-2.67.45c-.2-.19-3.36-13.17-3-13.29S53.59,15.45,53.89,15.28Z"/></g></g></svg>